<svg width="50" height="50" viewBox="0 0 50 50" fill="none" xmlns="http://www.w3.org/2000/svg">
<circle cx="25" cy="25" r="25" fill="#7FD349" fill-opacity="0.35"/>
<path d="M25.0001 14.0625C18.9594 14.0625 14.0626 18.9594 14.0626 25C14.0626 26.9925 14.5944 28.8581 15.5238 30.4656C15.6301 30.6487 15.6569 30.8669 15.5988 31.0706L14.2763 35.7219L18.9263 34.3994C19.027 34.3707 19.1325 34.3625 19.2364 34.3754C19.3404 34.3883 19.4406 34.422 19.5313 34.4744C21.1931 35.4363 23.0799 35.9411 25.0001 35.9375C31.0407 35.9375 35.9376 31.0406 35.9376 25C35.9376 18.9594 31.0407 14.0625 25.0001 14.0625ZM12.5001 25C12.5001 18.0963 18.0963 12.5 25.0001 12.5C31.9038 12.5 37.5 18.0963 37.5 25C37.5 31.9037 31.9038 37.5 25.0001 37.5C22.8438 37.5 20.8138 36.9537 19.0419 35.9912L13.8938 37.455C13.0694 37.6894 12.3082 36.9275 12.5426 36.1037L14.0063 30.955C13.0142 29.1272 12.4964 27.0797 12.5001 25ZM20.0001 22.6562C20.0001 22.225 20.3501 21.875 20.7813 21.875H29.2188C29.3214 21.875 29.423 21.8952 29.5178 21.9345C29.6126 21.9737 29.6987 22.0313 29.7712 22.1038C29.8438 22.1764 29.9013 22.2625 29.9406 22.3573C29.9798 22.4521 30.0001 22.5537 30.0001 22.6562C30.0001 22.7588 29.9798 22.8604 29.9406 22.9552C29.9013 23.05 29.8438 23.1361 29.7712 23.2087C29.6987 23.2812 29.6126 23.3388 29.5178 23.378C29.423 23.4173 29.3214 23.4375 29.2188 23.4375H20.7813C20.3501 23.4375 20.0001 23.0875 20.0001 22.6562ZM20.7813 26.5625C20.5741 26.5625 20.3754 26.6448 20.2289 26.7913C20.0824 26.9378 20.0001 27.1365 20.0001 27.3438C20.0001 27.551 20.0824 27.7497 20.2289 27.8962C20.3754 28.0427 20.5741 28.125 20.7813 28.125H26.7188C26.926 28.125 27.1247 28.0427 27.2712 27.8962C27.4177 27.7497 27.5001 27.551 27.5001 27.3438C27.5001 27.1365 27.4177 26.9378 27.2712 26.7913C27.1247 26.6448 26.926 26.5625 26.7188 26.5625H20.7813Z" fill="#26B170"/>
</svg>
