<svg width="306" height="43" viewBox="0 0 306 43" fill="none" xmlns="http://www.w3.org/2000/svg">
<path d="M162.436 13.7419C162.436 17.3518 164.239 21.3007 164.239 27.5639C164.239 33.4031 162.436 37.2043 162.436 40.5369C162.436 42.5761 164.615 42.4272 165.447 42.4272H171.51C172.342 42.4272 174.521 42.5761 174.521 40.5369C174.521 37.8836 171.826 36.0151 171.826 31.9172C172.541 32.8085 173.57 33.4031 174.818 33.4031C179.216 33.4031 182.426 29.6878 182.426 22.4681C182.426 13.2745 175.77 11.8516 173.194 11.8516H165.447C164.615 11.8516 162.436 11.7039 162.436 13.7419ZM171.371 22.4899C171.371 19.2833 172.084 17.1605 173.135 17.1605C174.185 17.1605 174.898 19.2833 174.898 22.4899C174.898 25.6747 174.185 27.7976 173.135 27.7976C172.084 27.7976 171.371 25.6747 171.371 22.4899Z" fill="#009DD1"/>
<path d="M183.707 22.4681C183.707 29.0085 187.313 33.4031 191.712 33.4031C194.446 33.4031 194.823 32.1509 195.972 32.1509C197.042 32.1509 196.922 33.4031 198.547 33.4031C201.34 33.4031 203.559 32.1074 203.559 30.2183C203.559 28.3074 202.054 27.3302 202.054 22.4681C202.054 17.9452 203.401 15.9072 203.401 13.9115C203.401 11.8734 201.677 11.5332 200.845 11.5332C199.914 11.5332 199.201 11.8516 197.16 11.8516C196.169 11.8516 195.397 11.5125 192.841 11.5332C189.948 11.5549 183.707 13.6148 183.707 22.4681ZM193 17.1387C194.05 17.1387 194.763 19.2627 194.763 22.4681C194.763 25.653 194.05 27.777 193 27.777C191.949 27.777 191.236 25.653 191.236 22.4681C191.236 19.2627 191.949 17.1387 193 17.1387Z" fill="#009DD1"/>
<path d="M210.824 33.4031C212.925 33.4031 215.5 32.3411 215.5 30.452C215.5 28.7748 212.726 29.0085 212.726 22.4682V14.2094H213.538C214.172 14.2094 214.608 13.7419 214.608 13.0626V12.9984C214.608 12.3191 214.172 11.8517 213.538 11.8517H212.726V6.28852C212.726 5.52439 212.588 4.48416 211.815 4.48416C211.121 4.48416 209.438 6.47984 207.655 8.26357C205.654 10.2592 204.247 11.7245 204.247 12.8071C204.247 13.6778 204.663 14.2094 205.772 14.2094C206.346 14.2094 206.861 13.9963 207.218 13.9963C207.576 13.9963 207.773 14.1876 207.773 14.9311C207.773 17.2453 204.226 21.1942 204.226 26.2476C204.226 30.8129 207.139 33.4031 210.824 33.4031Z" fill="#009DD1"/>
<path d="M218.132 22.4681C218.132 26.3541 216.348 28.9226 216.348 31.1955C216.348 33.2336 218.211 33.0846 219.042 33.0846H224.788C225.62 33.0846 227.483 33.2336 227.483 31.1955C227.483 29.3476 225.68 26.1204 225.68 22.4681C225.68 20.8975 225.659 18.1583 225.659 15.8865C225.659 12.4886 224.551 11.5332 223.56 11.5332C223.045 11.5332 220.865 12.2125 219.894 12.4886C218.111 12.9984 216.189 13.3811 216.189 14.8463C216.189 17.0963 218.132 17.7974 218.132 22.4681ZM221.856 10.2592C223.024 10.2592 226.968 7.83854 226.968 5.03634C226.968 3.35915 225.818 2.19061 224.51 2.19061C223.302 2.19061 222.45 3.10367 221.856 3.86895C221.281 3.10367 220.43 2.19061 219.221 2.19061C217.913 2.19061 216.764 3.35915 216.764 5.03634C216.764 7.83854 220.707 10.2592 221.856 10.2592Z" fill="#009DD1"/>
<path d="M228.172 14.8463C228.172 17.0963 230.114 17.7974 230.114 22.4681C230.114 26.3747 228.311 28.9226 228.311 31.1955C228.311 33.2336 230.49 33.0846 231.322 33.0846H235.721C236.553 33.0846 239.445 33.2336 239.445 31.1955C239.445 28.8172 237.642 25.7801 237.623 22.4681C237.602 20.7486 237.762 18.2213 239.466 18.2213C241.07 18.2213 241.347 20.7268 241.386 22.4681C241.446 25.504 240.277 28.3498 240.277 31.1955C240.277 33.2336 243.17 33.0846 244.002 33.0846H247.707C248.539 33.0846 250.719 33.2336 250.719 31.1955C250.719 28.9226 248.915 26.3747 248.915 22.4681V18.2213C248.915 14.3365 247.429 11.5332 243.843 11.5332C240.357 11.5332 238.336 14.0604 237.841 14.0604C237.583 14.0604 237.484 13.9115 237.425 13.6778C237.008 12.043 236.276 11.5332 235.542 11.5332C235.027 11.5332 232.848 12.2125 231.877 12.4886C230.094 12.9984 228.172 13.3811 228.172 14.8463Z" fill="#009DD1"/>
<path d="M253.208 17.3724C253.208 28.4346 251.404 27.8194 251.404 31.1955C251.404 33.2336 253.584 33.0847 254.416 33.0847H258.617C259.448 33.0847 262.341 33.2336 262.341 31.1955C262.341 29.1987 260.538 27.5433 260.538 23.7421V21.0453C260.538 19.8138 261.172 18.2213 262.817 18.2213C264.382 18.2213 264.976 19.8138 264.976 21.0453V23.7421C264.976 27.5433 263.173 29.1987 263.173 31.1955C263.173 33.2336 266.065 33.0847 266.898 33.0847H271.296C272.129 33.0847 274.307 33.2336 274.307 31.1955C274.307 29.1987 272.505 27.5433 272.505 23.7421V18.2213C272.505 14.3365 271.019 11.5332 267.433 11.5332C263.292 11.5332 261.192 13.9115 260.776 13.9115C260.558 13.9115 260.598 13.7626 260.598 13.0202C260.598 10.4506 262.321 7.52007 262.321 4.39939C262.321 2.36133 260.142 2.50912 259.309 2.50912H254.416C253.584 2.50912 251.404 2.36133 251.404 4.39939C251.404 7.71139 253.208 11.5332 253.208 17.3724Z" fill="#009DD1"/>
<path d="M275.291 22.4681C275.291 29.0085 278.896 33.4031 283.295 33.4031C286.03 33.4031 286.406 32.1509 287.555 32.1509C288.625 32.1509 288.505 33.4031 290.13 33.4031C292.923 33.4031 295.142 32.1074 295.142 30.2183C295.142 28.3074 293.637 27.3302 293.637 22.4681C293.637 17.9452 294.984 15.9072 294.984 13.9115C294.984 11.8734 293.26 11.5332 292.428 11.5332C291.497 11.5332 290.784 11.8516 288.744 11.8516C287.753 11.8516 286.98 11.5125 284.424 11.5332C281.531 11.5549 275.291 13.6148 275.291 22.4681ZM284.583 17.1387C285.633 17.1387 286.346 19.2627 286.346 22.4681C286.346 25.653 285.633 27.777 284.583 27.777C283.532 27.777 282.819 25.653 282.819 22.4681C282.819 19.2627 283.532 17.1387 284.583 17.1387Z" fill="#009DD1"/>
<mask id="mask0_91_321" style="mask-type:luminance" maskUnits="userSpaceOnUse" x="297" y="9" width="9" height="10">
<path d="M297.243 9.67822H306V18.4766H297.243V9.67822Z" fill="white"/>
</mask>
<g mask="url(#mask0_91_321)">
<mask id="mask1_91_321" style="mask-type:luminance" maskUnits="userSpaceOnUse" x="295" y="8" width="13" height="13">
<path d="M295.881 14.6479L303.226 8.20496L307.599 13.9296L300.254 20.3726L295.881 14.6479Z" fill="white"/>
</mask>
<g mask="url(#mask1_91_321)">
<mask id="mask2_91_321" style="mask-type:luminance" maskUnits="userSpaceOnUse" x="295" y="8" width="13" height="13">
<path d="M295.881 14.6479L303.226 8.20496L307.599 13.9296L300.254 20.3726L295.881 14.6479Z" fill="white"/>
</mask>
<g mask="url(#mask2_91_321)">
<path d="M303.48 16.9449C303.379 17.0343 303.278 17.1248 303.177 17.2118C302.941 17.4055 302.689 17.5693 302.422 17.7056C302.116 17.8649 301.799 17.992 301.472 18.0882C301.251 18.1444 301.027 18.1833 300.802 18.2051C300.349 18.2704 299.898 18.2704 299.446 18.2051C299.176 18.1707 298.918 18.0894 298.673 17.9611C298.419 17.8305 298.2 17.6506 298.015 17.4226C297.672 16.9873 297.601 16.8705 297.423 16.3469C297.261 15.8692 297.236 15.3823 297.343 14.8874C297.418 14.5013 297.533 14.1301 297.687 13.7727C297.853 13.4027 298.062 13.0613 298.312 12.7485C298.473 12.5423 298.648 12.3464 298.817 12.147C299.041 11.8984 299.279 11.667 299.533 11.4528C299.679 11.3199 299.834 11.1962 299.983 11.0667C300.085 10.9785 300.194 10.9029 300.311 10.8399C300.418 10.7803 300.497 10.6692 300.621 10.6348C300.974 10.3885 301.37 10.243 301.763 10.0975C302.013 10.0162 302.267 9.95318 302.526 9.90735C302.653 9.87871 302.786 9.87528 302.914 9.85122C303.21 9.8031 303.505 9.81112 303.799 9.87757C304.15 9.93943 304.465 10.0872 304.746 10.3221C305.184 10.6887 305.488 11.1561 305.655 11.7255C305.727 11.9867 305.757 12.2547 305.742 12.5285C305.726 13.0269 305.644 13.5126 305.497 13.9858C305.284 14.6319 305.011 15.2414 304.587 15.7649C304.433 15.954 304.286 16.1487 304.118 16.324C304.019 16.442 303.916 16.5543 303.806 16.6619C303.696 16.7536 303.589 16.851 303.482 16.9461C303.48 16.9461 303.48 16.9461 303.48 16.9449Z" fill="#009DD1"/>
</g>
</g>
</g>
<mask id="mask3_91_321" style="mask-type:luminance" maskUnits="userSpaceOnUse" x="290" y="0" width="8" height="11">
<path d="M290.402 0.586548H297.79V10.5581H290.402V0.586548Z" fill="white"/>
</mask>
<g mask="url(#mask3_91_321)">
<mask id="mask4_91_321" style="mask-type:luminance" maskUnits="userSpaceOnUse" x="289" y="-1" width="11" height="13">
<path d="M289.115 8.33208L293.634 -0.612946L299.705 2.9087L295.185 11.8549L289.115 8.33208Z" fill="white"/>
</mask>
<g mask="url(#mask4_91_321)">
<mask id="mask5_91_321" style="mask-type:luminance" maskUnits="userSpaceOnUse" x="289" y="-1" width="11" height="13">
<path d="M289.115 8.33208L293.634 -0.612946L299.705 2.9087L295.185 11.8549L289.115 8.33208Z" fill="white"/>
</mask>
<g mask="url(#mask5_91_321)">
<path d="M296.959 7.37204C296.897 7.49577 296.836 7.6195 296.772 7.74208C296.623 8.01703 296.448 8.27136 296.248 8.50506C296.021 8.77658 295.773 9.02403 295.504 9.24514C295.32 9.38719 295.128 9.51436 294.926 9.62548C294.531 9.8695 294.112 10.0528 293.672 10.1765C293.409 10.2544 293.141 10.2831 292.87 10.2647C292.588 10.2464 292.322 10.1685 292.069 10.0322C291.598 9.76983 291.491 9.68964 291.141 9.27836C290.824 8.90145 290.627 8.46153 290.552 7.95975C290.485 7.57253 290.459 7.18187 290.475 6.78892C290.499 6.37879 290.572 5.97782 290.692 5.58716C290.768 5.3294 290.86 5.07851 290.946 4.82532C291.067 4.50455 291.206 4.19294 291.364 3.89164C291.452 3.70949 291.552 3.53306 291.644 3.35205C291.708 3.22947 291.782 3.11491 291.867 3.00837C291.945 2.90984 291.979 2.7758 292.082 2.69332C292.32 2.32214 292.637 2.02657 292.949 1.73214C293.152 1.55572 293.365 1.39304 293.587 1.2464C293.695 1.1685 293.816 1.11236 293.926 1.03789C294.184 0.871779 294.459 0.759508 294.755 0.702227C295.102 0.616305 295.446 0.62547 295.788 0.728576C296.325 0.890109 296.77 1.19943 297.126 1.65768C297.286 1.87076 297.408 2.10676 297.49 2.36567C297.653 2.83423 297.749 3.31654 297.779 3.81374C297.811 4.49882 297.773 5.17359 297.566 5.83003C297.49 6.06832 297.423 6.30776 297.329 6.53803C297.279 6.68811 297.224 6.8336 297.161 6.9768C297.091 7.1074 297.027 7.2403 296.961 7.37204C296.96 7.37204 296.96 7.37204 296.959 7.37204Z" fill="#009DD1"/>
</g>
</g>
</g>
<mask id="mask6_91_321" style="mask-type:luminance" maskUnits="userSpaceOnUse" x="281" y="0" width="7" height="11">
<path d="M281.097 0H287.939V10.2648H281.097V0Z" fill="white"/>
</mask>
<g mask="url(#mask6_91_321)">
<mask id="mask7_91_321" style="mask-type:luminance" maskUnits="userSpaceOnUse" x="280" y="-1" width="9" height="12">
<path d="M281.625 10.4802L280.744 0.351711L287.617 -0.335663L288.499 9.79279L281.625 10.4802Z" fill="white"/>
</mask>
<g mask="url(#mask7_91_321)">
<mask id="mask8_91_321" style="mask-type:luminance" maskUnits="userSpaceOnUse" x="280" y="-1" width="9" height="12">
<path d="M281.625 10.4802L280.744 0.351711L287.617 -0.335663L288.499 9.79279L281.625 10.4802Z" fill="white"/>
</mask>
<g mask="url(#mask8_91_321)">
<path d="M287.649 5.0098C287.662 5.14957 287.675 5.28934 287.685 5.4291C287.704 5.74644 287.691 6.06263 287.646 6.37653C287.599 6.73626 287.52 7.08911 287.411 7.43394C287.332 7.66192 287.238 7.88188 287.127 8.09497C286.925 8.53374 286.673 8.93471 286.371 9.30016C286.192 9.52127 285.986 9.70457 285.75 9.85121C285.506 10.0024 285.244 10.0975 284.965 10.1342C284.436 10.196 284.306 10.1937 283.802 10.0597C283.341 9.93598 282.95 9.68738 282.628 9.31506C282.372 9.03323 282.148 8.72391 281.957 8.3871C281.763 8.03196 281.616 7.65505 281.513 7.25866C281.444 6.99975 281.39 6.73626 281.33 6.47506C281.263 6.13595 281.218 5.79456 281.194 5.44972C281.172 5.24466 281.164 5.03959 281.147 4.83452C281.135 4.69476 281.138 4.55499 281.154 4.41523C281.168 4.28692 281.126 4.15517 281.168 4.02571C281.174 3.57434 281.284 3.14129 281.391 2.71054C281.468 2.44246 281.56 2.18126 281.669 1.92579C281.718 1.79748 281.79 1.67833 281.844 1.55002C281.971 1.25903 282.143 1.00241 282.358 0.777872C282.601 0.500632 282.893 0.302439 283.231 0.18444C283.76 -0.00115107 284.291 -0.0091705 284.825 0.161527C285.069 0.242867 285.292 0.366594 285.495 0.532709C285.873 0.824843 286.203 1.16853 286.486 1.56492C286.867 2.11481 287.186 2.69794 287.354 3.36698C287.415 3.60985 287.483 3.84929 287.524 4.09674C287.561 4.25026 287.59 4.40491 287.612 4.56187C287.622 4.7108 287.637 4.85973 287.65 5.00866C287.65 5.0098 287.65 5.0098 287.649 5.0098Z" fill="#009DD1"/>
</g>
</g>
</g>
<mask id="mask9_91_321" style="mask-type:luminance" maskUnits="userSpaceOnUse" x="270" y="4" width="9" height="11">
<path d="M270.698 4.69247H278.361V14.664H270.698V4.69247Z" fill="white"/>
</mask>
<g mask="url(#mask9_91_321)">
<mask id="mask10_91_321" style="mask-type:luminance" maskUnits="userSpaceOnUse" x="269" y="3" width="12" height="13">
<path d="M273.904 15.8451L269.564 6.79814L275.703 3.41626L280.043 12.4632L273.904 15.8451Z" fill="white"/>
</mask>
<g mask="url(#mask10_91_321)">
<mask id="mask11_91_321" style="mask-type:luminance" maskUnits="userSpaceOnUse" x="269" y="3" width="12" height="13">
<path d="M273.904 15.8451L269.564 6.79814L275.703 3.41626L280.043 12.4632L273.904 15.8451Z" fill="white"/>
</mask>
<g mask="url(#mask11_91_321)">
<path d="M277.592 8.3642C277.652 8.48907 277.713 8.6128 277.772 8.73882C277.898 9.02522 277.996 9.32423 278.064 9.6324C278.145 9.9864 278.195 10.345 278.213 10.7081C278.219 10.9522 278.208 11.1939 278.18 11.4356C278.145 11.9225 278.051 12.3956 277.896 12.855C277.808 13.1323 277.68 13.3843 277.511 13.6146C277.338 13.8529 277.128 14.0453 276.881 14.1908C276.412 14.4601 276.291 14.5093 275.776 14.5861C275.307 14.6548 274.857 14.5803 274.428 14.3638C274.092 14.2046 273.777 14.0075 273.483 13.7715C273.181 13.5184 272.912 13.2274 272.679 12.9009C272.525 12.6878 272.383 12.4644 272.237 12.2467C272.057 11.9592 271.896 11.6602 271.754 11.3497C271.663 11.1687 271.583 10.9808 271.496 10.7975C271.437 10.6715 271.39 10.542 271.357 10.4057C271.325 10.2808 271.24 10.1743 271.235 10.038C271.084 9.61751 271.035 9.17071 270.985 8.7285C270.963 8.44897 270.958 8.16944 270.97 7.88991C270.971 7.75014 270.996 7.61152 271.001 7.47176C271.018 7.15098 271.089 6.84281 271.211 6.54953C271.34 6.19439 271.541 5.89423 271.814 5.65022C272.24 5.26643 272.731 5.04762 273.284 4.99148C273.539 4.96971 273.79 4.99606 274.036 5.06824C274.487 5.18967 274.913 5.37641 275.314 5.63074C275.859 5.98932 276.358 6.40289 276.747 6.95737C276.887 7.15786 277.033 7.35261 277.158 7.56684C277.246 7.69401 277.327 7.82575 277.401 7.96323C277.463 8.09727 277.528 8.22901 277.592 8.36305C277.592 8.3642 277.592 8.3642 277.592 8.3642Z" fill="#009DD1"/>
</g>
</g>
</g>
<path d="M136.143 31.8461C137.989 31.8461 138.457 31.2894 140.026 31.2894C141.126 31.2894 141.633 31.6422 142.581 31.6422C142.911 31.6422 144.301 31.7373 144.301 30.4359C144.301 28.2798 143.151 28.6728 143.151 21.61C143.151 17.8821 144.301 15.4546 144.301 13.3271C144.301 12.0246 142.911 12.1196 142.379 12.1196H139.368C138.837 12.1196 137.446 12.0246 137.446 13.3271C137.446 15.3469 138.533 17.2039 138.533 18.8307C138.533 19.305 138.559 19.4001 138.42 19.4001C138.154 19.4001 137.294 17.8821 135.32 17.8821C132.917 17.8821 131.412 20.2272 131.412 24.8636C131.412 29.3785 133.309 31.8461 136.143 31.8461ZM136.282 24.8911C136.282 22.8438 136.737 21.4874 137.407 21.4874C138.078 21.4874 138.533 22.8438 138.533 24.8911C138.533 26.9245 138.078 28.2798 137.407 28.2798C136.737 28.2798 136.282 26.9245 136.282 24.8911Z" fill="#97E7F5"/>
<path d="M144.931 24.8636C144.931 28.3474 147.321 31.8461 151.762 31.8461C155.342 31.8461 156.949 30.4622 156.949 29.2295C156.949 28.4425 156.467 27.0597 155.316 27.0597C154.254 27.0597 153.748 28.2535 151.939 28.2535C151.421 28.2535 150.623 28.077 150.623 27.6428C150.623 27.4802 150.738 27.4527 150.953 27.4527C151.332 27.4527 152.015 27.5615 152.9 27.2636C154.76 26.6393 156.758 25.3115 156.758 22.1519C156.758 19.305 154.355 17.8821 151.762 17.8821C147.082 17.8821 144.931 21.4198 144.931 24.8636ZM149.814 23.427C150.244 22.247 150.94 21.4748 151.573 21.4748C152.204 21.4748 152.343 22.247 151.914 23.427C151.484 24.5921 150.775 25.3654 150.142 25.3654C149.511 25.3654 149.383 24.5921 149.814 23.427Z" fill="#97E7F5"/>
<path d="M0 22.4681C0 29.0085 3.60563 33.4031 8.00444 33.4031C10.7389 33.4031 11.1151 32.1509 12.2643 32.1509C13.3343 32.1509 13.2146 33.4031 14.8394 33.4031C17.6327 33.4031 19.8518 32.1074 19.8518 30.2183C19.8518 28.3074 18.3467 27.3302 18.3467 22.4681C18.3467 17.9452 19.6936 15.9072 19.6936 13.9115C19.6936 11.8734 17.9694 11.5332 17.1377 11.5332C16.2066 11.5332 15.4936 11.8516 13.453 11.8516C12.462 11.8516 11.6892 11.5125 9.13327 11.5332C6.24064 11.5549 0 13.6148 0 22.4681ZM9.29255 17.1387C10.3423 17.1387 11.0553 19.2627 11.0553 22.4681C11.0553 25.653 10.3423 27.777 9.29255 27.777C8.24175 27.777 7.52875 25.653 7.52875 22.4681C7.52875 19.2627 8.24175 17.1387 9.29255 17.1387Z" fill="#01377D"/>
<path d="M20.519 14.8463C20.519 17.0963 22.4614 17.7974 22.4614 22.4681C22.4614 26.3747 20.658 28.9226 20.658 31.1955C20.658 33.2336 22.8376 33.0846 23.6693 33.0846H28.7416C29.8907 33.0629 31.7924 32.8509 31.7924 31.1955C31.7924 28.6465 29.9495 25.7801 29.9698 22.4681C29.989 20.7486 30.2071 18.2213 31.8127 18.2213C33.4172 18.2213 33.6941 20.7268 33.7336 22.4681C33.7935 25.504 32.6241 28.3498 32.6241 31.1955C32.6241 32.8509 34.5268 33.0629 35.676 33.0846H40.0545C41.3415 33.0846 43.0657 33.0629 43.0657 31.1955C43.0657 29.0933 41.2228 26.078 41.2624 22.4681C41.2827 20.7268 41.4805 18.2213 43.085 18.2213C44.6895 18.2213 44.9674 20.7268 45.007 22.4681C45.0669 25.504 43.8974 28.3498 43.8974 31.1955C43.8974 32.8509 45.7991 33.0629 46.9482 33.0846H51.3267C52.1595 33.0846 54.338 33.2336 54.338 31.1955C54.338 28.9226 52.5357 26.3747 52.5357 22.4681V18.2213C52.5357 14.3365 51.0499 11.5332 47.4635 11.5332C44.3528 11.5332 41.3415 13.8473 40.7279 14.7398C40.0341 12.7647 38.5686 11.5332 36.1901 11.5332C32.7042 11.5332 30.6828 14.0604 30.1879 14.0604C29.9302 14.0604 29.8308 13.9115 29.772 13.6778C29.3551 12.043 28.6229 11.5332 27.8896 11.5332C27.3743 11.5332 25.1947 12.2125 24.2241 12.4886C22.441 12.9984 20.519 13.3811 20.519 14.8463Z" fill="#01377D"/>
<path d="M56.9633 22.4681C56.9633 26.3541 55.1803 28.9226 55.1803 31.1955C55.1803 33.2336 57.0424 33.0846 57.8741 33.0846H63.6198C64.4514 33.0846 66.3147 33.2336 66.3147 31.1955C66.3147 29.3476 64.5113 26.1204 64.5113 22.4681C64.5113 20.8975 64.491 18.1583 64.491 15.8865C64.491 12.4886 63.3825 11.5332 62.3915 11.5332C61.8763 11.5332 59.6967 12.2125 58.726 12.4886C56.943 12.9984 55.021 13.3811 55.021 14.8463C55.021 17.0963 56.9633 17.7974 56.9633 22.4681ZM60.6876 10.2592C61.856 10.2592 65.7994 7.83854 65.7994 5.03634C65.7994 3.35915 64.6503 2.19061 63.3419 2.19061C62.1339 2.19061 61.2819 3.10367 60.6876 3.86895C60.1125 3.10367 59.2616 2.19061 58.0526 2.19061C56.7452 2.19061 55.5961 3.35915 55.5961 5.03634C55.5961 7.83854 59.5385 10.2592 60.6876 10.2592Z" fill="#01377D"/>
<path d="M76.1178 43C83.7449 43 86.9742 38.4141 86.9742 33.4249C86.9742 28.4563 85.9448 26.0356 85.9448 21.216C85.9448 17.4148 87.7471 15.7582 87.7471 13.7626C87.7471 11.7245 85.5674 11.8734 84.7358 11.8734H76.3946C73.8195 11.8734 67.38 13.6354 67.38 22.4899C67.38 28.4769 70.0952 33.4031 75.0274 33.4249C76.276 33.4249 77.9008 33.1694 78.3562 32.5966C79.4059 33.9335 78.0398 35.5901 76.6918 35.5901C72.928 35.5901 72.2941 33.4031 70.4319 33.4031C68.6884 33.4031 67.3009 35.5901 67.3009 37.6076C67.3009 40.7076 71.8782 43 76.1178 43ZM74.9291 22.4681C74.9291 19.2627 75.6421 17.1387 76.6918 17.1387C77.7426 17.1387 78.4556 19.2627 78.4556 22.4681C78.4556 25.653 77.7426 27.777 76.6918 27.777C75.6421 27.777 74.9291 25.653 74.9291 22.4681Z" fill="#01377D"/>
<path d="M98.122 33.4031C104.065 33.4031 107.513 29.0291 107.513 22.4475C107.513 15.9072 104.065 11.5332 98.122 11.5332C92.1785 11.5332 88.7311 15.9072 88.7311 22.4475C88.7311 29.0291 92.1785 33.4031 98.122 33.4031ZM96.3592 22.4899C96.3592 19.2833 97.0722 17.1605 98.122 17.1605C99.1728 17.1605 99.8858 19.2833 99.8858 22.4899C99.8858 25.6747 99.1728 27.7976 98.122 27.7976C97.0722 27.7976 96.3592 25.6747 96.3592 22.4899Z" fill="#01377D"/>
<path d="M120.226 28.0095C120.226 28.7106 119.751 29.1139 119.018 29.1357C116.244 29.1357 114.858 25.7171 111.747 25.7171C110.004 25.7171 108.834 26.9269 108.834 28.8378C108.834 32.4477 113.173 33.4031 117.591 33.4031C122.327 33.4031 126.745 31.4074 126.745 25.9932C126.745 18.1159 115.095 19.4105 115.095 16.9268C115.095 16.2474 115.71 16.1202 116.165 16.1202C118.265 16.1202 119.534 18.7529 123.179 18.7529C124.862 18.7529 126.111 17.8181 126.111 16.0137C126.111 12.3408 120.523 11.5332 117.314 11.5332C112.857 11.5332 108.795 13.7202 108.795 18.2213C108.795 27.14 120.226 24.9736 120.226 28.0095Z" fill="#01377D"/>
</svg>
